Coordinates
version=1
nRows=16
nColumns=40
inDegrees=yes

Units are S.I. units (second, meters, Newtons, ...)
Angles are in degrees.

endheader
time	pelvis_tilt	pelvis_list	pelvis_rotation	pelvis_tx	pelvis_ty	pelvis_tz	hip_flexion_r	hip_adduction_r	hip_rotation_r	knee_angle_r	knee_angle_r_beta	ankle_angle_r	subtalar_angle_r	mtp_angle_r	hip_flexion_l	hip_adduction_l	hip_rotation_l	knee_angle_l	knee_angle_l_beta	ankle_angle_l	subtalar_angle_l	mtp_angle_l	lumbar_extension	lumbar_bending	lumbar_rotation	arm_flex_r	arm_add_r	arm_rot_r	elbow_flex_r	pro_sup_r	wrist_flex_r	wrist_dev_r	arm_flex_l	arm_add_l	arm_rot_l	elbow_flex_l	pro_sup_l	wrist_flex_l	wrist_dev_l
     43.98142857	     -3.56506151	     -1.65549216	     -0.75297256	      1.07629791	      0.91719181	      0.40627895	     28.41417962	     -5.92655148	    -14.88710737	      9.74112356	      9.74112356	      1.93975030	      7.02987318	     14.76516453	     -3.07271521	     -2.25226931	    -17.10520036	     11.28666143	     11.28666143	     18.54929755	     -1.17512957	     -9.26003320	    -10.25248638	      2.39885675	      1.42732314	    -15.01198540	    -16.30648224	    -21.51426412	     23.41464217	     47.96212732	      0.00000000	      0.00000000	     29.21734326	    -17.38771763	      0.00000885	     76.58182589	     47.28573317	      0.00000000	      0.00000000
     43.99285714	     -3.57675613	     -1.66178789	     -0.67865404	      1.07799128	      0.91526042	      0.40845204	     28.29799122	     -5.64926278	    -15.08490332	      9.82498313	      9.82498313	      1.36050078	      7.21862818	     13.09952651	     -3.80199149	     -2.40745424	    -16.96774876	     11.37970893	     11.37970893	     19.43584972	     -1.06048974	     -8.06476505	    -10.17379326	      2.41814177	      1.05824635	    -15.91232503	    -16.25995701	    -22.57658573	     24.49936838	     47.94130678	      0.00000000	      0.00000000	     28.31214496	    -18.09813311	     -0.27612462	     79.42113706	     47.38423474	      0.00000000	      0.00000000
     44.00428571	     -3.54726653	     -1.74474276	     -0.57548109	      1.07981853	      0.91341536	      0.41077859	     28.12631002	     -5.31519707	    -14.96365383	     10.25152769	     10.25152769	      0.21079283	      6.67064996	      9.90813737	     -4.49101173	     -2.70780418	    -16.88793377	     11.65909867	     11.65909867	     20.34172800	     -0.89465840	     -6.86247935	    -10.09136218	      2.52713284	      1.04736417	    -16.65817293	    -16.20626571	    -23.23936173	     24.74291726	     47.90677048	      0.00000000	      0.00000000	     27.76090138	    -18.17930519	     -0.69391163	     81.27315722	     47.48764617	      0.00000000	      0.00000000
     44.01571429	     -3.51136596	     -1.84044075	     -0.44644810	      1.08176408	      0.91162679	      0.41319855	     28.02776155	     -5.03971731	    -14.69850112	     11.13179412	     11.13179412	     -1.12555359	      5.70235450	      5.94604545	     -5.12787084	     -3.05754793	    -16.75575902	     12.05863874	     12.05863874	     21.19717335	     -0.80020223	     -5.76642191	     -9.98299416	      2.66105525	      1.02941271	    -17.17878461	    -16.14315506	    -23.59753843	     24.76129593	     47.84642367	      0.00000000	      0.00000000	     27.15129458	    -18.26311020	     -1.01560348	     82.75313055	     47.58468641	      0.00000000	      0.00000000
     44.02714286	     -3.50381332	     -1.95681733	     -0.28259185	      1.08365598	      0.90997946	      0.41565675	     28.21373128	     -4.88158164	    -14.42742352	     12.77608415	     12.77608415	     -1.43362194	      4.63843123	      4.65526781	     -5.65063942	     -3.45136438	    -16.49205003	     12.54465150	     12.54465150	     21.60770430	     -1.07370140	     -5.49018977	     -9.84471367	      2.81918159	      1.25091006	    -17.66230260	    -16.04847246	    -23.65518144	     24.60682834	     47.83662731	      0.00000000	      0.00000000	     26.77154003	    -18.07773460	     -1.09820840	     83.59103887	     47.61340982	      0.00000000	      0.00000000
     44.03857143	     -3.37271722	     -2.09661711	     -0.09202013	      1.08576289	      0.90859425	      0.41824080	     28.06183505	     -4.62190173	    -13.84135216	     14.06251026	     14.06251026	     -3.13418730	      2.74101217	     -0.55580016	     -6.16296633	     -3.95170535	    -16.25854325	     13.39941160	     13.39941160	     22.55256936	     -1.10844656	     -3.92560526	     -9.87568908	      3.00871177	      0.83032754	    -17.59032198	    -16.04887944	    -23.85706711	     24.74007301	     47.77394045	      0.00000000	      0.00000000	     25.47369334	    -18.34864857	     -1.85599315	     85.49830443	     47.73540247	      0.00000000	      0.00000000
     44.05000000	     -3.09668541	     -2.41746558	      0.12619360	      1.08793984	      0.90801214	      0.42085219	     27.73113485	     -4.32121245	    -13.90959170	     15.56640702	     15.56640702	     -3.09334480	      2.15602275	     -0.97739620	     -6.89744767	     -4.63375957	    -16.00572375	     14.02477106	     14.02477106	     22.62464783	     -1.44720805	     -3.92354238	    -10.02513451	      3.44771103	      1.01753291	    -17.67860721	    -15.81016944	    -23.82819354	     24.63051666	     47.77150282	      0.00000000	      0.00000000	     24.71699354	    -18.04828774	     -1.75857808	     85.45859887	     47.72571656	      0.00000000	      0.00000000
     44.06142857	     -3.12428436	     -2.43060272	      0.33076518	      1.08964111	      0.90668290	      0.42353752	     28.39439715	     -4.39807071	    -13.21292259	     18.25362038	     18.25362038	     -2.65994174	      0.41582265	     -2.13156886	     -6.71952534	     -5.13671274	    -15.51159566	     15.73207866	     15.73207866	     22.86076245	     -2.20864934	     -4.01616140	     -9.93531358	      3.47126063	      1.27210643	    -17.64645485	    -15.82395106	    -23.83414699	     24.49846215	     47.76948335	      0.00000000	      0.00000000	     24.33373538	    -17.80376413	     -1.95769655	     86.10951028	     47.75392809	      0.00000000	      0.00000000
     44.07285714	     -3.07777801	     -2.60692561	      0.55375914	      1.09140047	      0.90609467	      0.42635274	     28.54493423	     -4.19088231	    -12.65077132	     20.11473791	     20.11473791	     -2.29713865	     -1.16826536	     -2.98475079	     -6.50481685	     -5.85857656	    -15.00961264	     17.62906618	     17.62906618	     22.84492337	     -3.09292478	     -4.14703396	     -9.88990348	      3.72915838	      1.35574109	    -17.22809107	    -15.56515774	    -23.80438298	     24.41683603	     47.76200444	      0.00000000	      0.00000000	     23.19701396	    -17.51823633	     -2.18529494	     86.53665629	     47.77699337	      0.00000000	      0.00000000
     44.08428571	     -2.92475439	     -2.88036287	      0.77206845	      1.09313126	      0.90613393	      0.42936037	     28.40823464	     -3.78887399	    -12.03258532	     21.63286052	     21.63286052	     -1.84290831	     -2.86110030	     -3.74399266	     -6.24342661	     -6.72693457	    -14.45514276	     19.76219151	     19.76219151	     22.37872667	     -4.23917772	     -4.79049806	    -10.02016087	      4.06155983	      0.89508419	    -15.99178171	    -15.55282283	    -23.67152021	     23.79014765	     47.75175473	      0.00000000	      0.00000000	     21.40296270	    -17.37204742	     -3.39943542	     87.48764538	     47.88660358	      0.00000000	      0.00000000
     44.09571429	     -2.65143389	     -3.12286696	      0.97977463	      1.09483478	      0.90669512	      0.43237013	     28.07591374	     -3.52702117	    -11.98779142	     23.09011325	     23.09011325	     -0.92736071	     -3.42867090	     -4.22929102	     -5.87354573	     -7.62710207	    -13.92872797	     22.32368161	     22.32368161	     21.76160321	     -5.35602300	     -5.25429269	    -10.31575221	      4.36256758	      1.19091824	    -15.32061944	    -15.38261141	    -23.57596070	     23.79790575	     47.74282814	      0.00000000	      0.00000000	     20.46043275	    -16.95726652	     -3.39594114	     87.20193153	     47.87910047	      0.00000000	      0.00000000
     44.10714286	     -2.69238160	     -3.34387885	      1.19353888	      1.09606850	      0.90719193	      0.43541539	     28.00874518	     -3.19878945	    -11.70918377	     24.31947933	     24.31947933	      0.38320725	     -4.18618479	     -3.21019893	     -4.85164822	     -8.46693478	    -12.95902863	     25.15704388	     25.15704388	     19.41056895	     -7.92784458	     -8.83804345	    -10.21758566	      4.62681610	      0.80595411	    -13.52481828	    -15.29929561	    -22.84879406	     22.56547253	     47.69048309	      0.00000000	      0.00000000	     18.62770951	    -16.48786618	     -4.70388858	     87.16371519	     47.98826870	      0.00000000	      0.00000000
     44.11857143	     -2.58347748	     -3.56622919	      1.39026757	      1.09728218	      0.90822837	      0.43855585	     27.57980287	     -2.80710641	    -11.51542267	     25.14769267	     25.14769267	      1.40966162	     -4.89550849	     -3.16647138	     -3.71354357	     -9.35736041	    -12.03104737	     28.51616531	     28.51616531	     17.47481290	    -10.15154243	    -10.36786877	    -10.32863511	      4.90035696	      0.95455154	    -12.36548301	    -15.08005984	    -22.45915135	     22.61019299	     47.64040772	      0.00000000	      0.00000000	     17.40690603	    -15.97294408	     -4.99350879	     86.17450515	     47.99431911	      0.00000000	      0.00000000
     44.13000000	     -2.48234755	     -3.85124701	      1.58492625	      1.09836384	      0.90951296	      0.44171134	     26.94415056	     -2.36383634	    -11.63158792	     25.56600082	     25.56600082	      2.33724470	     -5.10205097	     -3.40557511	     -2.25351395	    -10.41450358	    -11.24890450	     32.39595311	     32.39595311	     15.58334924	    -11.85169272	    -11.02931856	    -10.45919288	      5.22655681	      1.28280793	    -11.24857930	    -14.81474213	    -22.24678413	     22.87639670	     47.61247184	      0.00000000	      0.00000000	     16.14156433	    -15.41211489	     -4.91993532	     85.30409792	     47.96885419	      0.00000000	      0.00000000
     44.14142857	     -2.43681312	     -4.07241408	      1.76944140	      1.09918475	      0.91090229	      0.44481735	     26.28681117	     -1.93143619	    -11.66145681	     25.77517565	     25.77517565	      3.21497978	     -5.39266661	     -3.52910657	     -0.53036394	    -11.30908405	    -10.19340050	     36.40930396	     36.40930396	     13.05141776	    -14.02821512	    -11.65241785	    -10.54273940	      5.46213595	      1.46579769	     -9.89975035	    -14.56572771	    -21.92697385	     23.18405109	     47.57454969	      0.00000000	      0.00000000	     14.81829247	    -14.84940992	     -5.03761614	     83.94110643	     47.94605454	      0.00000000	      0.00000000
     44.15285714	     -2.29933845	     -4.31945164	      1.96908732	      1.09991710	      0.91247938	      0.44784590	     25.43058489	     -1.46422855	    -11.80032568	     25.79821177	     25.79821177	      4.05079853	     -5.55143702	     -3.68283052	      1.28031834	    -12.21944197	     -9.11674239	     40.57023525	     40.57023525	     10.32485982	    -15.91056841	    -11.76526107	    -10.73516178	      5.75019983	      1.72602731	     -8.44007035	    -14.34772035	    -21.59727414	     23.58245296	     47.53486972	      0.00000000	      0.00000000	     13.58012511	    -14.25227245	     -5.09803907	     82.52852661	     47.91793357	      0.00000000	      0.00000000
